<?xml version="1.0" encoding="UTF-8"?>
<svg xmlns="http://www.w3.org/2000/svg" xmlns:xlink="http://www.w3.org/1999/xlink" width="25px" height="25px" viewBox="0 0 25 25" version="1.1">
<g id="surface1">
<path style=" stroke:none;fill-rule:nonzero;fill:rgb(0%,0%,0%);fill-opacity:1;" d="M 6.007812 1.726562 C 4.484375 2.070312 3.144531 2.871094 2.03125 4.101562 C 0.566406 5.710938 -0.0117188 8.457031 0.636719 10.703125 C 1.796875 14.714844 5.480469 18.777344 11.671875 22.890625 C 12.042969 23.132812 12.414062 23.339844 12.480469 23.339844 C 12.832031 23.339844 15.265625 21.6875 17.140625 20.175781 C 18.515625 19.070312 20.578125 17.03125 21.582031 15.789062 C 23.117188 13.886719 24.238281 11.71875 24.523438 10.117188 C 24.707031 9.003906 24.589844 7.34375 24.238281 6.328125 C 23.828125 5.125 23.527344 4.65625 22.550781 3.691406 C 21.847656 2.996094 21.523438 2.761719 20.78125 2.402344 C 20.285156 2.15625 19.609375 1.882812 19.289062 1.804688 C 18.535156 1.621094 16.835938 1.621094 16.015625 1.816406 C 15.148438 2.011719 13.730469 2.722656 13.117188 3.261719 C 12.84375 3.503906 12.550781 3.710938 12.480469 3.710938 C 12.402344 3.710938 12.238281 3.59375 12.101562 3.457031 C 11.476562 2.792969 9.855469 1.960938 8.78125 1.757812 C 8.28125 1.660156 6.386719 1.640625 6.007812 1.726562 Z M 6.007812 1.726562 "/>
</g>
</svg>
